<svg id="Layer_1" data-name="Layer 1" xmlns="http://www.w3.org/2000/svg" viewBox="0 0 72.29 18.65">
  <g>
    <polygon points="0 0 0 14.26 12 18.65 24.01 14.29 24.01 0 0 0" style="fill: #be2d48"/>
    <path d="M2.71,11c0,3,1.39,4.37,3.54,4.37a3.75,3.75,0,0,0,3.58-1.82v1.61h3.65l0-10.49H9.55v5c0,1.6-.37,2.5-1.5,2.49-.94,0-1.41-.45-1.41-1.88V4.66H2.71ZM14.39,7.81c0,4,6.06,2.7,6.06,4.37,0,.74-.64.93-1.25.93a1.5,1.5,0,0,1-1-.32,1.16,1.16,0,0,1-.42-.95H14.08c.2,2.79,2.7,3.53,5,3.53,3.63,0,5.33-1.46,5.33-3.62,0-3.89-6.25-2.93-6.25-4.37,0-.52.44-.74,1.12-.74A1.19,1.19,0,0,1,20,6.9a1.11,1.11,0,0,1,.38.76H24c-.22-2.76-2.76-3.28-4.91-3.28s-4.69.77-4.69,3.43" transform="translate(-1.19 -0.86)" style="fill: #fff;fill-rule: evenodd"/>
    <path d="M73,14.43c0,.08,0,.09-.1.09h-.13v-.17h.1c.06,0,.13,0,.13.08m-.38-.2v.71h.15v-.3h.06l.17.3h.17L73,14.63a.16.16,0,0,0,.16-.18c0-.16-.1-.22-.28-.22Zm.72.36a.48.48,0,0,1-.47.5h0a.46.46,0,0,1-.46-.5.47.47,0,0,1,.46-.51.48.48,0,0,1,.47.51m-1.12,0a.63.63,0,0,0,.65.65.64.64,0,0,0,.66-.65.66.66,0,1,0-1.31,0M60.39.86V15.15h3.93V12.28l.74-.77,2.11,3.64H71.9L67.77,8.83l3.67-4H66.85L64.33,8V.86ZM53,6.42V4.78H49.67V15.15h3.68V9.89c0-1.33.31-2.15,1.44-2.14s1.29.91,1.29,1.94v5.46h3.69V9c0-2.85-1.15-4.46-3.59-4.47A3.56,3.56,0,0,0,53,6.42M42.93,13.13c-.77,0-1.24-.36-1.24-.87,0-1.35,1.7-1,3-1.69.1,1.43-.36,2.56-1.74,2.56M38.23,8H42c.1-.9.84-1,1.38-1s1.29.1,1.29.85c0,2-7-.2-7.06,4.52,0,2.16,1.66,3.14,3.53,3.14a4.84,4.84,0,0,0,3.73-1.41l.19,1.09h4.06V15a1.38,1.38,0,0,1-.53-1.33V8.79c0-2.48-.28-4.31-5-4.31-3.92,0-5.41,1.28-5.42,3.48M33.56,10c0,1.13-.38,2.44-1.66,2.44S30.24,11.07,30.24,10s.47-2.31,1.66-2.3S33.56,8.93,33.56,10m-7.17,5.11h3.54V13.69h0a3.12,3.12,0,0,0,3,1.77c3.23,0,4.48-2.48,4.48-5.55s-1.77-5.44-4.3-5.44a3.38,3.38,0,0,0-2.85,1.34V.87H26.41Z" transform="translate(-1.19 -0.86)" style="fill: #0c2074;fill-rule: evenodd"/>
  </g>
</svg>
